<svg width="282" height="69" viewBox="0 0 282 69" fill="none" xmlns="http://www.w3.org/2000/svg">
<path d="M68.954 45.296H56.902L54.97 51H46.736L58.42 18.708H67.528L79.212 51H70.886L68.954 45.296ZM66.93 39.224L62.928 27.402L58.972 39.224H66.93ZM90.634 28.966C91.4007 27.77 92.4587 26.804 93.808 26.068C95.1573 25.332 96.7367 24.964 98.546 24.964C100.662 24.964 102.579 25.5007 104.296 26.574C106.013 27.6473 107.363 29.1807 108.344 31.174C109.356 33.1673 109.862 35.4827 109.862 38.12C109.862 40.7573 109.356 43.088 108.344 45.112C107.363 47.1053 106.013 48.654 104.296 49.758C102.579 50.8313 100.662 51.368 98.546 51.368C96.7673 51.368 95.188 51 93.808 50.264C92.4587 49.528 91.4007 48.5773 90.634 47.412V63.236H82.768V25.332H90.634V28.966ZM101.858 38.12C101.858 36.1573 101.306 34.624 100.202 33.52C99.1287 32.3853 97.7947 31.818 96.2 31.818C94.636 31.818 93.302 32.3853 92.198 33.52C91.1247 34.6547 90.588 36.2033 90.588 38.166C90.588 40.1287 91.1247 41.6773 92.198 42.812C93.302 43.9467 94.636 44.514 96.2 44.514C97.764 44.514 99.098 43.9467 100.202 42.812C101.306 41.6467 101.858 40.0827 101.858 38.12ZM121.855 28.966C122.621 27.77 123.679 26.804 125.029 26.068C126.378 25.332 127.957 24.964 129.767 24.964C131.883 24.964 133.799 25.5007 135.517 26.574C137.234 27.6473 138.583 29.1807 139.565 31.174C140.577 33.1673 141.083 35.4827 141.083 38.12C141.083 40.7573 140.577 43.088 139.565 45.112C138.583 47.1053 137.234 48.654 135.517 49.758C133.799 50.8313 131.883 51.368 129.767 51.368C127.988 51.368 126.409 51 125.029 50.264C123.679 49.528 122.621 48.5773 121.855 47.412V63.236H113.989V25.332H121.855V28.966ZM133.079 38.12C133.079 36.1573 132.527 34.624 131.423 33.52C130.349 32.3853 129.015 31.818 127.421 31.818C125.857 31.818 124.523 32.3853 123.419 33.52C122.345 34.6547 121.809 36.2033 121.809 38.166C121.809 40.1287 122.345 41.6773 123.419 42.812C124.523 43.9467 125.857 44.514 127.421 44.514C128.985 44.514 130.319 43.9467 131.423 42.812C132.527 41.6467 133.079 40.0827 133.079 38.12ZM153.075 29.61C153.995 28.1993 155.145 27.0953 156.525 26.298C157.905 25.47 159.439 25.056 161.125 25.056V33.382H158.963C157.001 33.382 155.529 33.8113 154.547 34.67C153.566 35.498 153.075 36.97 153.075 39.086V51H145.209V25.332H153.075V29.61ZM189.081 37.752C189.081 38.488 189.035 39.2547 188.943 40.052H171.141C171.264 41.6467 171.77 42.8733 172.659 43.732C173.579 44.56 174.699 44.974 176.017 44.974C177.98 44.974 179.345 44.146 180.111 42.49H188.483C188.054 44.1767 187.272 45.6947 186.137 47.044C185.033 48.3933 183.638 49.4513 181.951 50.218C180.265 50.9847 178.379 51.368 176.293 51.368C173.779 51.368 171.54 50.8313 169.577 49.758C167.615 48.6847 166.081 47.1513 164.977 45.158C163.873 43.1647 163.321 40.834 163.321 38.166C163.321 35.498 163.858 33.1673 164.931 31.174C166.035 29.1807 167.569 27.6473 169.531 26.574C171.494 25.5007 173.748 24.964 176.293 24.964C178.777 24.964 180.985 25.4853 182.917 26.528C184.849 27.5707 186.352 29.058 187.425 30.99C188.529 32.922 189.081 35.176 189.081 37.752ZM181.031 35.682C181.031 34.3327 180.571 33.2593 179.651 32.462C178.731 31.6647 177.581 31.266 176.201 31.266C174.883 31.266 173.763 31.6493 172.843 32.416C171.954 33.1827 171.402 34.2713 171.187 35.682H181.031ZM208.871 25.056C211.876 25.056 214.268 26.0373 216.047 28C217.856 29.932 218.761 32.6 218.761 36.004V51H210.941V37.062C210.941 35.3447 210.496 34.0107 209.607 33.06C208.718 32.1093 207.522 31.634 206.019 31.634C204.516 31.634 203.32 32.1093 202.431 33.06C201.542 34.0107 201.097 35.3447 201.097 37.062V51H193.231V25.332H201.097V28.736C201.894 27.6013 202.968 26.712 204.317 26.068C205.666 25.3933 207.184 25.056 208.871 25.056ZM222.663 38.12C222.663 35.4827 223.154 33.1673 224.135 31.174C225.147 29.1807 226.512 27.6473 228.229 26.574C229.946 25.5007 231.863 24.964 233.979 24.964C235.666 24.964 237.199 25.3167 238.579 26.022C239.99 26.7273 241.094 27.678 241.891 28.874V16.96H249.757V51H241.891V47.32C241.155 48.5467 240.097 49.528 238.717 50.264C237.368 51 235.788 51.368 233.979 51.368C231.863 51.368 229.946 50.8313 228.229 49.758C226.512 48.654 225.147 47.1053 224.135 45.112C223.154 43.088 222.663 40.7573 222.663 38.12ZM241.891 38.166C241.891 36.2033 241.339 34.6547 240.235 33.52C239.162 32.3853 237.843 31.818 236.279 31.818C234.715 31.818 233.381 32.3853 232.277 33.52C231.204 34.624 230.667 36.1573 230.667 38.12C230.667 40.0827 231.204 41.6467 232.277 42.812C233.381 43.9467 234.715 44.514 236.279 44.514C237.843 44.514 239.162 43.9467 240.235 42.812C241.339 41.6773 241.891 40.1287 241.891 38.166ZM281.668 25.332L265.568 63.19H257.104L262.992 50.126L252.55 25.332H261.336L267.27 41.386L273.158 25.332H281.668Z" fill="white"/>
<g clip-path="url(#clip0)">
<path d="M26.8333 14.8333H3.83333C1.725 14.8333 0 16.5583 0 18.6667V49.3333C0 51.4417 1.725 53.1667 3.83333 53.1667H26.8333C28.9417 53.1667 30.6667 51.4417 30.6667 49.3333V18.6667C30.6667 16.5583 28.9417 14.8333 26.8333 14.8333ZM3.83333 18.6667H13.4167V34L8.625 31.125L3.83333 34V18.6667Z" fill="white"/>
</g>
<defs>
<clipPath id="clip0">
<rect width="46" height="46" fill="white" transform="translate(0 11)"/>
</clipPath>
</defs>
</svg>
